<?xml version="1.0" encoding="UTF-8"?>
<svg version="1.1" xmlns="http://www.w3.org/2000/svg" width="50" height="50">
<path d="M0 0 C0.89009766 -0.020625 1.78019531 -0.04125 2.69726562 -0.0625 C9.04789289 -0.10016124 13.38023552 0.68917476 18.234375 5.1171875 C22.67481115 10.35201361 25.5946231 14.12534578 25.1875 21.25 C22.5475 21.25 19.9075 21.25 17.1875 21.25 C16.8575 23.89 16.5275 26.53 16.1875 29.25 C18.8275 29.25 21.4675 29.25 24.1875 29.25 C24.81228756 34.24830051 23.60162229 37.23224867 20.88671875 41.28515625 C17.23618659 45.50634632 12.45643876 48.49368708 7.1875 50.25 C-8.74613915 51.23285793 -8.74613915 51.23285793 -15.8125 47.25 C-21.00438195 42.53443749 -24.84084952 36.93139846 -25.24609375 29.7890625 C-25.2632104 28.15113058 -25.26416475 26.51296011 -25.25 24.875 C-25.26998047 24.06289063 -25.28996094 23.25078125 -25.31054688 22.4140625 C-25.30505631 15.56183276 -23.66663195 10.13700103 -18.77734375 5.19140625 C-18.10832031 4.73636719 -17.43929688 4.28132812 -16.75 3.8125 C-16.07839844 3.33941406 -15.40679687 2.86632812 -14.71484375 2.37890625 C-10.02754239 -0.40267505 -5.2744076 0.03016102 0 0 Z M12.1875 21.25 C13.1875 23.25 13.1875 23.25 13.1875 23.25 Z M-15.8125 40.25 C-15.1525 40.91 -14.4925 41.57 -13.8125 42.25 C-13.8125 41.59 -13.8125 40.93 -13.8125 40.25 C-14.4725 40.25 -15.1325 40.25 -15.8125 40.25 Z M-6.8125 40.25 C-6.1525 40.91 -5.4925 41.57 -4.8125 42.25 C-4.8125 41.59 -4.8125 40.93 -4.8125 40.25 C-5.4725 40.25 -6.1325 40.25 -6.8125 40.25 Z M0.1875 46.25 C4.1875 47.25 4.1875 47.25 4.1875 47.25 Z " fill="#024762" transform="translate(24.8125,-0.25)"/>
</svg>
