<?xml version="1.0" encoding="UTF-8"?>
<svg xmlns="http://www.w3.org/2000/svg" xmlns:xlink="http://www.w3.org/1999/xlink" width="75px" height="75px" viewBox="0 0 75 75" version="1.1">
<defs>
<clipPath id="clip1">
  <path d="M 27.800781 23.402344 L 52.5 23.402344 L 52.5 36 L 27.800781 36 Z M 27.800781 23.402344 "/>
</clipPath>
<clipPath id="clip2">
  <path d="M 22.5 39.199219 L 26.402344 39.199219 L 26.402344 50.199219 L 22.5 50.199219 Z M 22.5 39.199219 "/>
</clipPath>
<clipPath id="clip3">
  <path d="M 22.5 37.597656 L 23.402344 37.597656 L 23.402344 51.878906 L 22.5 51.878906 Z M 22.5 37.597656 "/>
</clipPath>
</defs>
<g id="surface1">
<g clip-path="url(#clip1)" clip-rule="nonzero">
<path style=" stroke:none;fill-rule:nonzero;fill:rgb(28.235295%,84.705883%,89.019608%);fill-opacity:1;" d="M 49.902344 35.847656 C 49.855469 35.847656 49.808594 35.839844 49.769531 35.832031 C 45.515625 34.308594 41.488281 32.832031 37.597656 31.402344 C 34.59375 30.300781 31.496094 29.152344 28.246094 27.980469 C 28.035156 27.910156 27.933594 27.667969 28.003906 27.464844 L 28.664062 25.621094 C 29.269531 23.964844 31.101562 23.097656 32.765625 23.699219 L 52.222656 30.867188 C 52.332031 30.902344 52.417969 30.988281 52.457031 31.101562 C 52.5 31.207031 52.496094 31.332031 52.441406 31.429688 L 50.269531 35.625 C 50.199219 35.765625 50.058594 35.847656 49.902344 35.847656 Z M 28.898438 27.351562 C 32.011719 28.480469 34.988281 29.574219 37.871094 30.632812 C 41.660156 32.027344 45.582031 33.464844 49.707031 34.945312 L 51.496094 31.464844 L 32.484375 24.464844 C 31.246094 24.019531 29.863281 24.65625 29.417969 25.898438 Z M 28.898438 27.351562 "/>
</g>
<path style=" stroke:none;fill-rule:nonzero;fill:rgb(28.235295%,84.705883%,89.019608%);fill-opacity:1;" d="M 44.753906 38.707031 C 44.707031 38.707031 44.660156 38.699219 44.613281 38.675781 L 28.042969 32.472656 C 27.636719 32.324219 27.316406 32.027344 27.136719 31.636719 C 26.953125 31.242188 26.929688 30.800781 27.070312 30.398438 L 27.996094 27.46875 C 28.066406 27.253906 28.292969 27.136719 28.503906 27.207031 C 28.722656 27.269531 28.832031 27.496094 28.769531 27.707031 L 27.84375 30.652344 C 27.84375 30.65625 27.839844 30.660156 27.839844 30.660156 C 27.761719 30.867188 27.773438 31.089844 27.863281 31.285156 C 27.957031 31.476562 28.121094 31.628906 28.324219 31.699219 L 44.503906 37.757812 L 45.820312 33.972656 C 45.894531 33.761719 46.125 33.644531 46.335938 33.722656 C 46.542969 33.796875 46.660156 34.027344 46.582031 34.238281 L 45.136719 38.414062 C 45.097656 38.511719 45.019531 38.601562 44.925781 38.652344 C 44.863281 38.691406 44.808594 38.707031 44.753906 38.707031 Z M 44.753906 38.707031 "/>
<path style=" stroke:none;fill-rule:nonzero;fill:rgb(28.235295%,84.705883%,89.019608%);fill-opacity:1;" d="M 32.980469 46.410156 C 31.21875 46.410156 29.789062 44.980469 29.789062 43.21875 C 29.789062 41.457031 31.21875 40.027344 32.980469 40.027344 C 34.746094 40.027344 36.175781 41.457031 36.175781 43.21875 C 36.175781 44.980469 34.746094 46.410156 32.980469 46.410156 Z M 32.980469 40.828125 C 31.664062 40.828125 30.597656 41.894531 30.597656 43.214844 C 30.597656 44.527344 31.664062 45.589844 32.980469 45.589844 C 34.300781 45.589844 35.367188 44.527344 35.367188 43.214844 C 35.367188 41.894531 34.300781 40.828125 32.980469 40.828125 Z M 32.980469 40.828125 "/>
<path style=" stroke:none;fill-rule:nonzero;fill:rgb(28.235295%,84.705883%,89.019608%);fill-opacity:1;" d="M 32.980469 44.695312 C 32.160156 44.695312 31.5 44.035156 31.5 43.21875 C 31.5 42.398438 32.160156 41.738281 32.980469 41.738281 C 33.796875 41.738281 34.457031 42.398438 34.457031 43.21875 C 34.457031 44.035156 33.796875 44.695312 32.980469 44.695312 Z M 32.980469 42.539062 C 32.605469 42.539062 32.316406 42.839844 32.316406 43.214844 C 32.316406 43.582031 32.605469 43.878906 32.980469 43.878906 C 33.351562 43.878906 33.652344 43.582031 33.652344 43.214844 C 33.652344 42.839844 33.351562 42.539062 32.980469 42.539062 Z M 32.980469 42.539062 "/>
<g clip-path="url(#clip2)" clip-rule="nonzero">
<path style=" stroke:none;fill-rule:nonzero;fill:rgb(28.235295%,84.705883%,89.019608%);fill-opacity:1;" d="M 22.902344 50.179688 C 22.800781 50.179688 22.691406 50.136719 22.621094 50.058594 C 22.546875 49.988281 22.5 49.875 22.5 49.777344 L 22.5 39.746094 C 22.5 39.519531 22.683594 39.339844 22.902344 39.339844 L 24.816406 39.332031 C 24.816406 39.332031 24.816406 39.332031 24.824219 39.332031 C 25.570312 39.332031 26.183594 39.871094 26.199219 40.542969 L 26.226562 48.957031 C 26.226562 49.253906 26.105469 49.542969 25.894531 49.761719 C 25.636719 50.027344 25.253906 50.175781 24.863281 50.175781 Z M 24.855469 49.769531 Z M 23.308594 40.144531 L 23.308594 49.363281 L 24.855469 49.363281 C 25.035156 49.363281 25.199219 49.300781 25.308594 49.195312 C 25.359375 49.148438 25.417969 49.066406 25.410156 48.964844 L 25.378906 40.546875 C 25.378906 40.332031 25.121094 40.148438 24.816406 40.148438 Z M 23.308594 40.144531 "/>
</g>
<path style=" stroke:none;fill-rule:nonzero;fill:rgb(28.235295%,84.705883%,89.019608%);fill-opacity:1;" d="M 46.410156 38.113281 C 45.863281 38.113281 45.324219 37.957031 44.863281 37.644531 C 44.683594 37.519531 44.628906 37.265625 44.761719 37.082031 C 44.886719 36.902344 45.140625 36.847656 45.324219 36.980469 C 45.644531 37.195312 46.027344 37.3125 46.410156 37.3125 C 47.488281 37.3125 48.371094 36.433594 48.371094 35.363281 C 48.371094 35.269531 48.355469 35.179688 48.347656 35.085938 C 48.308594 34.863281 48.46875 34.660156 48.691406 34.628906 C 48.914062 34.59375 49.121094 34.746094 49.148438 34.96875 C 49.171875 35.097656 49.175781 35.226562 49.175781 35.355469 C 49.175781 36.886719 47.933594 38.113281 46.410156 38.113281 Z M 46.410156 38.113281 "/>
<path style=" stroke:none;fill-rule:nonzero;fill:rgb(28.235295%,84.705883%,89.019608%);fill-opacity:1;" d="M 35.425781 42.277344 C 35.371094 42.277344 35.320312 42.261719 35.269531 42.246094 C 35.0625 42.160156 34.964844 41.917969 35.050781 41.714844 L 37.660156 35.621094 C 37.738281 35.414062 37.980469 35.316406 38.191406 35.402344 C 38.390625 35.488281 38.488281 35.722656 38.402344 35.933594 L 35.800781 42.027344 C 35.738281 42.183594 35.582031 42.277344 35.425781 42.277344 Z M 35.425781 42.277344 "/>
<path style=" stroke:none;fill-rule:nonzero;fill:rgb(28.235295%,84.705883%,89.019608%);fill-opacity:1;" d="M 33.222656 40.839844 C 33.167969 40.839844 33.117188 40.828125 33.066406 40.804688 C 32.859375 40.714844 32.761719 40.480469 32.847656 40.269531 L 35.230469 34.707031 C 35.320312 34.503906 35.554688 34.402344 35.765625 34.496094 C 35.964844 34.574219 36.070312 34.816406 35.980469 35.027344 L 33.597656 40.589844 C 33.527344 40.746094 33.378906 40.839844 33.222656 40.839844 Z M 33.222656 40.839844 "/>
<path style=" stroke:none;fill-rule:nonzero;fill:rgb(28.235295%,84.705883%,89.019608%);fill-opacity:1;" d="M 25.808594 46.652344 C 25.722656 46.652344 25.636719 46.628906 25.566406 46.574219 C 25.464844 46.5 25.40625 46.378906 25.40625 46.246094 L 25.386719 42.824219 C 25.386719 42.714844 25.429688 42.609375 25.511719 42.535156 C 25.589844 42.464844 25.691406 42.417969 25.804688 42.421875 L 30.214844 42.492188 C 30.332031 42.492188 30.441406 42.550781 30.515625 42.628906 C 30.589844 42.714844 30.628906 42.832031 30.613281 42.9375 C 30.605469 43.027344 30.605469 43.125 30.605469 43.214844 C 30.605469 43.722656 30.769531 44.207031 31.066406 44.621094 C 31.144531 44.730469 31.167969 44.863281 31.121094 44.996094 C 31.078125 45.121094 30.964844 45.214844 30.839844 45.253906 L 25.917969 46.636719 C 25.878906 46.644531 25.847656 46.652344 25.808594 46.652344 Z M 26.203125 43.230469 L 26.214844 45.707031 L 30.113281 44.613281 C 29.90625 44.203125 29.800781 43.757812 29.789062 43.289062 Z M 26.203125 43.230469 "/>
<path style=" stroke:none;fill-rule:nonzero;fill:rgb(28.235295%,84.705883%,89.019608%);fill-opacity:1;" d="M 31.917969 27.683594 C 31.800781 27.683594 31.6875 27.667969 31.574219 27.636719 C 30.878906 27.449219 30.46875 26.738281 30.65625 26.042969 C 30.839844 25.347656 31.558594 24.933594 32.25 25.125 C 32.949219 25.308594 33.355469 26.019531 33.167969 26.71875 C 33.082031 27.050781 32.863281 27.332031 32.558594 27.511719 C 32.363281 27.621094 32.144531 27.683594 31.917969 27.683594 Z M 31.917969 25.886719 C 31.699219 25.886719 31.5 26.027344 31.441406 26.25 C 31.378906 26.511719 31.527344 26.785156 31.785156 26.855469 C 31.917969 26.886719 32.042969 26.863281 32.15625 26.808594 C 32.273438 26.738281 32.355469 26.636719 32.386719 26.507812 C 32.457031 26.246094 32.300781 25.972656 32.042969 25.902344 C 31.996094 25.894531 31.957031 25.886719 31.917969 25.886719 Z M 31.917969 25.886719 "/>
<path style=" stroke:none;fill-rule:nonzero;fill:rgb(28.235295%,84.705883%,89.019608%);fill-opacity:1;" d="M 35.027344 28.894531 C 34.917969 28.894531 34.800781 28.878906 34.691406 28.847656 C 34.355469 28.757812 34.078125 28.542969 33.902344 28.238281 C 33.726562 27.933594 33.679688 27.589844 33.773438 27.253906 C 33.863281 26.910156 34.078125 26.636719 34.378906 26.460938 C 34.683594 26.285156 35.027344 26.238281 35.367188 26.332031 C 35.699219 26.417969 35.980469 26.636719 36.160156 26.941406 C 36.332031 27.246094 36.378906 27.589844 36.285156 27.925781 C 36.199219 28.265625 35.980469 28.542969 35.675781 28.714844 C 35.472656 28.839844 35.25 28.894531 35.027344 28.894531 Z M 35.019531 27.097656 C 34.933594 27.097656 34.851562 27.121094 34.777344 27.167969 C 34.664062 27.238281 34.582031 27.339844 34.546875 27.46875 C 34.519531 27.597656 34.535156 27.726562 34.59375 27.839844 C 34.664062 27.957031 34.761719 28.035156 34.894531 28.066406 C 35.019531 28.101562 35.152344 28.082031 35.269531 28.019531 C 35.378906 27.957031 35.460938 27.847656 35.496094 27.726562 C 35.527344 27.597656 35.507812 27.46875 35.449219 27.351562 C 35.378906 27.238281 35.277344 27.160156 35.152344 27.121094 C 35.109375 27.113281 35.0625 27.097656 35.019531 27.097656 Z M 35.019531 27.097656 "/>
<g clip-path="url(#clip3)" clip-rule="nonzero">
<path style=" stroke:none;fill-rule:nonzero;fill:rgb(28.235295%,84.705883%,89.019608%);fill-opacity:1;" d="M 22.902344 51.902344 C 22.683594 51.902344 22.5 51.722656 22.5 51.496094 L 22.5 38.015625 C 22.5 37.792969 22.683594 37.613281 22.902344 37.613281 C 23.128906 37.613281 23.308594 37.792969 23.308594 38.015625 L 23.308594 51.496094 C 23.308594 51.722656 23.128906 51.902344 22.902344 51.902344 Z M 22.902344 51.902344 "/>
</g>
</g>
</svg>
