<svg xmlns="http://www.w3.org/2000/svg" xmlns:xlink="http://www.w3.org/1999/xlink" width="500" zoomAndPan="magnify" viewBox="0 0 375 374.999991" height="500" preserveAspectRatio="xMidYMid meet" version="1.0"><defs><clipPath id="19ad08f6e5"><path d="M 126 112.5 L 175.78125 112.5 L 175.78125 143 L 126 143 Z M 126 112.5 " clip-rule="nonzero"/></clipPath><clipPath id="1c6a1a9fe1"><path d="M 112.78125 153 L 124 153 L 124 176.25 L 112.78125 176.25 Z M 112.78125 153 " clip-rule="nonzero"/></clipPath></defs><g clip-path="url(#19ad08f6e5)"><path fill="#48d8e3" d="M 162.09375 142.8125 C 159.851562 142.8125 157.617188 142.320312 155.558594 141.347656 L 127.4375 128.074219 C 126.992188 127.863281 126.648438 127.484375 126.480469 127.019531 C 126.3125 126.554688 126.339844 126.042969 126.550781 125.597656 L 132.105469 113.828125 C 132.542969 112.898438 133.652344 112.503906 134.582031 112.941406 L 174.933594 131.992188 C 175.421875 132.21875 175.785156 132.652344 175.929688 133.171875 C 176.074219 133.6875 175.988281 134.246094 175.691406 134.695312 L 174.878906 135.929688 C 172.847656 139.007812 169.777344 141.25 166.230469 142.246094 C 164.871094 142.625 163.480469 142.8125 162.09375 142.8125 Z M 157.144531 137.984375 C 162.125 140.335938 168.128906 138.800781 171.390625 134.429688 L 134.675781 117.097656 L 130.707031 125.503906 Z M 157.144531 137.984375 " fill-opacity="1" fill-rule="nonzero"/></g><path fill="#48d8e3" d="M 156.207031 151.71875 C 155.9375 151.71875 155.664062 151.65625 155.414062 151.539062 L 123.46875 136.457031 C 123.023438 136.246094 122.679688 135.867188 122.511719 135.40625 C 122.34375 134.941406 122.371094 134.429688 122.582031 133.984375 L 126.550781 125.578125 C 126.988281 124.648438 128.09375 124.25 129.023438 124.6875 C 129.953125 125.128906 130.351562 126.234375 129.910156 127.164062 L 126.738281 133.890625 L 155.320312 147.382812 L 158.761719 140.097656 C 159.199219 139.167969 160.304688 138.769531 161.234375 139.210938 C 162.164062 139.648438 162.5625 140.753906 162.121094 141.683594 L 157.890625 150.652344 C 157.679688 151.097656 157.300781 151.441406 156.835938 151.609375 C 156.632812 151.679688 156.421875 151.71875 156.207031 151.71875 Z M 156.207031 151.71875 " fill-opacity="1" fill-rule="nonzero"/><path fill="#48d8e3" d="M 162.472656 149.941406 C 161.339844 149.941406 160.210938 149.691406 159.152344 149.191406 L 157.003906 148.175781 C 156.074219 147.738281 155.675781 146.628906 156.113281 145.703125 C 156.554688 144.773438 157.660156 144.375 158.589844 144.8125 L 160.742188 145.828125 C 161.722656 146.292969 162.828125 146.347656 163.851562 145.980469 C 164.871094 145.613281 165.691406 144.871094 166.152344 143.890625 C 166.617188 142.910156 166.671875 141.8125 166.308594 140.792969 L 166.117188 140.253906 C 165.773438 139.285156 166.277344 138.222656 167.246094 137.878906 C 168.214844 137.535156 169.277344 138.039062 169.621094 139.007812 L 169.8125 139.550781 C 170.503906 141.5 170.402344 143.605469 169.515625 145.476562 C 168.628906 147.355469 167.0625 148.777344 165.105469 149.480469 C 164.246094 149.789062 163.359375 149.941406 162.472656 149.941406 Z M 162.472656 149.941406 " fill-opacity="1" fill-rule="nonzero"/><path fill="#48d8e3" d="M 134.957031 131.402344 C 134.519531 131.402344 134.082031 131.253906 133.730469 130.945312 C 132.957031 130.265625 132.878906 129.09375 133.558594 128.320312 L 142.476562 118.136719 C 143.152344 117.363281 144.328125 117.289062 145.101562 117.964844 C 145.871094 118.640625 145.949219 119.816406 145.273438 120.585938 L 136.355469 130.769531 C 135.988281 131.191406 135.472656 131.402344 134.957031 131.402344 Z M 134.957031 131.402344 " fill-opacity="1" fill-rule="nonzero"/><path fill="#48d8e3" d="M 144.625 154.496094 C 144.359375 154.496094 144.089844 154.4375 143.832031 154.320312 L 130.382812 147.96875 C 129.453125 147.53125 129.054688 146.421875 129.492188 145.492188 L 132.667969 138.769531 C 132.878906 138.320312 133.257812 137.976562 133.722656 137.8125 C 134.1875 137.644531 134.699219 137.667969 135.144531 137.878906 L 148.59375 144.230469 C 149.523438 144.667969 149.921875 145.777344 149.484375 146.707031 L 146.308594 153.429688 C 145.992188 154.101562 145.320312 154.496094 144.625 154.496094 Z M 133.648438 145.398438 L 143.738281 150.160156 L 145.324219 146.800781 L 135.238281 142.035156 Z M 133.648438 145.398438 " fill-opacity="1" fill-rule="nonzero"/><g clip-path="url(#1c6a1a9fe1)"><path fill="#48d8e3" d="M 122.078125 176.023438 L 114.640625 176.023438 C 113.613281 176.023438 112.78125 175.191406 112.78125 174.164062 L 112.78125 155.570312 C 112.78125 154.546875 113.613281 153.710938 114.640625 153.710938 L 122.078125 153.710938 C 123.105469 153.710938 123.9375 154.546875 123.9375 155.570312 L 123.9375 174.164062 C 123.9375 175.191406 123.105469 176.023438 122.078125 176.023438 Z M 116.5 172.304688 L 120.21875 172.304688 L 120.21875 157.429688 L 116.5 157.429688 Z M 116.5 172.304688 " fill-opacity="1" fill-rule="nonzero"/></g><path fill="#48d8e3" d="M 129.515625 166.707031 L 122.078125 166.707031 C 121.050781 166.707031 120.21875 165.875 120.21875 164.847656 C 120.21875 163.820312 121.050781 162.988281 122.078125 162.988281 L 129.515625 162.988281 C 130.542969 162.988281 131.375 163.820312 131.375 164.847656 C 131.375 165.875 130.542969 166.707031 129.515625 166.707031 Z M 129.515625 166.707031 " fill-opacity="1" fill-rule="nonzero"/><path fill="#48d8e3" d="M 134.410156 163.179688 C 134.214844 163.179688 134.019531 163.148438 133.824219 163.082031 C 132.847656 162.757812 132.320312 161.707031 132.648438 160.730469 L 136.542969 149.042969 C 136.867188 148.070312 137.921875 147.542969 138.894531 147.867188 C 139.867188 148.191406 140.394531 149.246094 140.070312 150.21875 L 136.175781 161.90625 C 135.914062 162.6875 135.191406 163.179688 134.410156 163.179688 Z M 134.410156 163.179688 " fill-opacity="1" fill-rule="nonzero"/><path fill="#48d8e3" d="M 133.234375 170.425781 C 130.160156 170.425781 127.65625 167.921875 127.65625 164.847656 C 127.65625 161.769531 130.160156 159.269531 133.234375 159.269531 C 136.308594 159.269531 138.8125 161.769531 138.8125 164.847656 C 138.8125 167.921875 136.308594 170.425781 133.234375 170.425781 Z M 133.234375 162.988281 C 132.210938 162.988281 131.375 163.820312 131.375 164.847656 C 131.375 165.871094 132.210938 166.707031 133.234375 166.707031 C 134.257812 166.707031 135.09375 165.871094 135.09375 164.847656 C 135.09375 163.820312 134.257812 162.988281 133.234375 162.988281 Z M 133.234375 162.988281 " fill-opacity="1" fill-rule="nonzero"/></svg>